<?xml version="1.0" encoding="UTF-8"?><svg id="a" xmlns="http://www.w3.org/2000/svg" xmlns:xlink="http://www.w3.org/1999/xlink" viewBox="0 0 129 114.9"><defs><style>.e{fill:url(#c);}.f{fill:url(#b);}.g{fill:url(#d);}</style><linearGradient id="b" x1="28.6" y1="-.74" x2="126.62" y2="91.01" gradientTransform="matrix(1, 0, 0, 1, 0, 0)" gradientUnits="userSpaceOnUse"><stop offset="0" stop-color="#9b7eb9"/><stop offset="1" stop-color="#3b1d54"/></linearGradient><linearGradient id="c" x1="53.87" y1="74.8" x2="93.6" y2="7.36" gradientTransform="matrix(1, 0, 0, 1, 0, 0)" gradientUnits="userSpaceOnUse"><stop offset="0" stop-color="#9b7eb9"/><stop offset=".93" stop-color="#3b1d54"/></linearGradient><linearGradient id="d" x1="0" y1="19.11" x2="129" y2="19.11" gradientTransform="matrix(1, 0, 0, 1, 0, 0)" gradientUnits="userSpaceOnUse"><stop offset="0" stop-color="#3b1d54"/><stop offset="1" stop-color="#9b7eb9"/></linearGradient></defs><path class="f" d="M74.28,109.26L127.32,17.4c4.34-7.51-1.08-16.9-9.76-16.9H11.49C2.82,.5-2.61,9.89,1.73,17.4L54.77,109.26c4.34,7.51,15.18,7.51,19.52,0Z"/><path class="e" d="M86.15,88.7l30.01-51.97c3.22-5.92-.95-13.13-7.61-13.29H48.54c-6.67,.16-10.84,7.37-7.5,13.14l30.01,51.97c3.33,5.77,11.66,5.77,15.11,.14Z"/><path class="g" d="M117.56,0H11.44C2.65,0-2.85,9.52,1.55,17.13l12.18,21.09c-1.72-6.9,3.44-14.14,11.11-14.14H104.17c7.67,0,12.82,7.23,11.11,14.14l12.18-21.09c4.4-7.61-1.1-17.13-9.89-17.13Z"/></svg>