<?xml version="1.0" encoding="UTF-8"?><svg id="a" xmlns="http://www.w3.org/2000/svg" xmlns:xlink="http://www.w3.org/1999/xlink" viewBox="0 0 160.21 142.34"><defs><style>.e{fill:url(#c);}.f{fill:url(#b);}.g{fill:url(#d);}</style><linearGradient id="b" x1="35.54" y1="-1.03" x2="157.09" y2="112.74" gradientTransform="matrix(1, 0, 0, 1, 0, 0)" gradientUnits="userSpaceOnUse"><stop offset="0" stop-color="#f1f2f2"/><stop offset="1" stop-color="#a7a9ac"/></linearGradient><linearGradient id="c" x1="66.98" y1="92.43" x2="116.25" y2="8.8" gradientTransform="matrix(1, 0, 0, 1, 0, 0)" gradientUnits="userSpaceOnUse"><stop offset="0" stop-color="#f1f2f2"/><stop offset=".93" stop-color="#a7a9ac"/></linearGradient><linearGradient id="d" x1="0" y1="23.76" x2="160.21" y2="23.76" gradientTransform="matrix(1, 0, 0, 1, 0, 0)" gradientUnits="userSpaceOnUse"><stop offset="0" stop-color="#a7a9ac"/><stop offset="1" stop-color="#f1f2f2"/></linearGradient></defs><path class="f" d="M92.2,135.36L158.05,21.56c5.38-9.31-1.35-20.94-12.12-20.94H14.24C3.48,.62-3.25,12.25,2.13,21.56l65.84,113.8c5.38,9.31,18.85,9.31,24.23,0Z"/><path class="e" d="M107.07,109.69l37.34-64.39c4.01-7.33-1.18-16.27-9.46-16.46H60.27c-8.3,.19-13.48,9.13-9.34,16.28l37.34,64.39c4.15,7.15,14.51,7.15,18.8,.18Z"/><path class="g" d="M146,0H14.21C3.29,0-3.54,11.83,1.92,21.3l15.12,26.22c-2.13-8.58,4.27-17.57,13.79-17.57h98.54c9.52,0,15.93,8.99,13.79,17.57l15.12-26.22c5.46-9.47-1.36-21.3-12.28-21.3Z"/></svg>